<mxfile host="app.diagrams.net" modified="2024-07-16T01:09:48.721Z" agent="Mozilla/5.0 (Windows NT 10.0; WOW64) AppleWebKit/537.36 (KHTML, like Gecko) Chrome/94.0.4606.71 Safari/537.36 SE 2.X MetaSr 1.0" version="24.6.4" etag="UYOkOiBOyKgAvxUD-eZW" type="github">
  <diagram name="第 1 页" id="ueAJS5mP7FaN1MOuHvFC">
    <mxGraphModel>
      <root>
        <mxCell id="0" />
        <mxCell id="1" parent="0" />
      </root>
    </mxGraphModel>
  </diagram>
</mxfile>
